# xmcd
#
# Track frame offsets:
#       150
#       13612
#       24790
#       38562
#       46087
#       61777
#       75370
#       84262
#       97012
#       101027
#       109047
#       130432
#       147125
#       163122
#       187820
#       206810
#       230287
#       239162
#       249452
#       267700
#       278837
#       300210
#       310560
#       329312
#
# Disc length: 4522 seconds
#
# Revision: 0
# Processed by: cddbd v1.4PL0 Copyright (c) Steve Scherf et al.
# Submitted via: CD-DA_X-Tractor v0.23
#
DISCID=3311a818
DTITLE=Malena Ernman and Bength-Ake Lundin - Cabaret Songs
DYEAR=2003
DGENRE=
TTITLE0=Over the piano
TTITLE1=Fur
TTITLE2=He tipped the waiter
TTITLE3=Waitin
TTITLE4=Song of Black Max
TTITLE5=Amor
TTITLE6=Places to live
TTITLE7=Toothbrush time
TTITLE8=Surprise!
TTITLE9=The Actor
TTITLE10=Oh Close the Curtain
TTITLE11=George
TTITLE12=Nanna's Lied
TTITLE13=Youkali
TTITLE14=Complainte de la Seine
TTITLE15=Je ne t'aime pas
TTITLE16=LaB mich einmal deine Carmen sein
TTITLE17=Nimm dich in acht vor blonden Frau'n
TTITLE18=Ich bin von Kopf bis FuB auf Liebe eingestellt
TTITLE19=Die Kliptomanin
TTITLE20=Tell me the truth about love
TTITLE21=Funeral Blues
TTITLE22=Johnny
TTITLE23=Calypso
EXTD=
EXTT0=
EXTT1=
EXTT2=
EXTT3=
EXTT4=
EXTT5=
EXTT6=
EXTT7=
EXTT8=
EXTT9=
EXTT10=
EXTT11=
EXTT12=
EXTT13=
EXTT14=
EXTT15=
EXTT16=
EXTT17=
EXTT18=
EXTT19=
EXTT20=
EXTT21=
EXTT22=
EXTT23=
PLAYORDER=
